<svg width="64" height="64" xmlns="http://www.w3.org/2000/svg" >
<path fill="#28325a" d="m 32,1.40 c -8.19,0 -16.40,1.49 -28,5.19 C 4,16.92 4.96,25.21 6.56,31.91 v -4.62 c 2.06,1.32 4.05,2.58 4.20,4.72 0.11,1.82 -0.97,4.22 -2.52,5.74 0.23,0.67 0.46,1.34 0.71,1.98 3.04,-4.88 7.91,-8.12 8.44,-6.40 l 0.22,0.95 v 6.34 h 5.38 C 19.01,41.82 14.66,43.69 12.38,46.86 18.42,56.86 26.44,60.04 32,62.59 c 5.41,-2.49 13.17,-5.57 19.15,-14.99 -2.65,1.88 -5.88,2.99 -9.34,2.99 H 16.73 c -0.22,-0.73 -0.29,-1.32 0,-1.84 2.50,-4.27 5.60,-5.16 10.10,-5.75 3.02,-0.36 8.92,4.27 11.94,3.90 5.16,-0.58 5.23,-6.41 11.87,-6.93 0.95,-0.14 2.13,-0.07 3.09,0.44 0.26,0.15 0.54,0.32 0.82,0.50 0.35,-0.85 0.69,-1.73 1.01,-2.65 -1.24,-0.23 -2.52,-0.40 -3.76,-0.50 -4.57,-0.29 -5.01,2.80 -9.51,1.62 2.58,-1.62 4.20,-4.49 4.13,-7.74 v -3.61 c 3.17,1.03 6.04,5.67 10.24,5.08 0.15,-0.05 0.30,-0.06 0.46,-0.06 C 58.92,26.15 60,17.51 60,6.59 59.08,6.30 58.23,6.05 57.36,5.79 v 3.51 c -1.03,0.95 -2.13,1.76 -3.09,2.43 -1.17,0.81 -5.30,1.76 -4.86,0.44 0.81,-2.43 3.61,-3.75 5.16,-5.82 0.29,-0.29 0.07,-0.66 0.07,-0.95 h 1.44 c -9.58,-2.82 -16.84,-4 -24.08,-4 z m 14.67,4 h 4.79 c -3.02,2.72 -5.67,5.82 -8.62,8.62 -0.36,0.36 -0.88,0.88 -1.17,1.32 h -8.48 c 0.22,-0.36 0.58,-0.95 0.81,-1.17 2.65,-3.61 7.22,-5.16 10.98,-7.59 0.58,-0.36 1.18,-0.73 1.69,-1.17 z m -24.26,0.07 c 0.12,-8.43e-4 0.25,0.00 0.37,0.00 h 4.20 c -1.62,2.06 -5.16,4.27 -7.30,5.74 -1.10,0.73 -2.80,0.37 -4.20,-0.07 -1.17,-0.29 -2.35,-0.88 -3.39,-1.69 2.78,-2.42 6.40,-3.95 10.31,-3.98 z m 8.56,0.00 h 8.92 c -2.80,2.43 -5.67,4.86 -8.11,7.74 -0.22,0.29 -0.66,0.95 -1.17,1.91 l -0.07,0.29 h -3.98 c -1.17,0 -2.35,9.46e-4 -3.39,0.44 0,-8.92 0.73,0.29 7.29,-6.19 0.88,-0.88 1.10,-2.80 0.51,-4.20 z m 26.32,6.78 v 7.96 c -0.95,0 -1.98,-5.17e-4 -3.09,0.51 -1.91,0.88 -2.65,3.53 -4.64,4.27 -0.88,0.29 -1.98,0.88 -3.09,1.17 v -9.95 c 0.51,0.81 1.03,2.14 1.84,2.06 1.62,-0.14 2.28,-2.13 3.46,-2.87 1.84,-1.10 3.61,-2.21 5.52,-3.16 z m -42.31,0.65 c 2.38,-0.01 4.07,1.94 5.07,4.94 -1.69,1.69 -2.50,3.61 -2.50,6.48 v 5.97 c -0.73,0.14 -1.62,0.22 -2.21,0.22 -3.90,0.14 -2.06,-2.06 -2.65,-3.16 -1.99,-3.98 -1.99,1.10 -6.12,-4.57 v -0.66 c 0,-3.09 0.81,-5.97 2.28,-8.55 0.81,-0.44 1.54,-0.66 1.99,-0.44 2.80,1.32 1.76,7.44 3.24,10.17 0.14,0.14 0.66,-0.07 0.66,-0.29 0.22,-2.72 -2.72,-9.88 0,-10.10 0.07,-0.00 0.15,-0.00 0.23,-0.00 z m 40.98,11.11 c 0.47,-0.00 0.96,0.03 1.47,0.10 v 5.01 c -2.06,-1.03 -5.97,-3.02 -4.35,-4.20 0.86,-0.65 1.82,-0.89 2.87,-0.91 z M 40.18,40.35 c 1.25,0.81 1.84,1.69 1.40,2.13 -4.35,4.35 -9.14,-0.07 -13.12,-1.84 h 9.06 c 0.95,0 1.84,-0.07 2.65,-0.29 z" />
</svg>
